<svg width="434" height="543" viewBox="0 0 434 543" fill="none" xmlns="http://www.w3.org/2000/svg">
<g id="Group 1">
<circle id="Ellipse 1" cx="241.616" cy="292.364" r="105.5" transform="rotate(-0.320033 241.616 292.364)" fill="#F3AC3C"/>
<rect id="Rectangle 1" x="53.0514" y="130.157" width="215" height="30.5642" rx="15.2821" transform="rotate(35.6508 53.0514 130.157)" fill="#F3AC3C"/>
<path id="Rectangle 2" d="M423.007 162.165C427.933 168.688 426.639 177.969 420.116 182.895L272.168 294.63C265.646 299.556 256.365 298.262 251.439 291.739V291.739C246.513 285.217 247.807 275.936 254.33 271.01L402.278 159.275C408.8 154.349 418.081 155.643 423.007 162.165V162.165Z" fill="#F3AC3C"/>
<path id="Rectangle 4" d="M190.363 313.88C195.014 320.884 193.105 330.331 186.101 334.982L32.3476 437.061C25.3435 441.711 15.8959 439.803 11.2457 432.799V432.799C6.59558 425.795 8.50383 416.347 15.5079 411.697L169.262 309.617C176.266 304.967 185.713 306.876 190.363 313.88V313.88Z" fill="#F3AC3C"/>
<path id="Rectangle 5" d="M403.683 384.055C399.058 391.163 389.546 393.175 382.439 388.549L227.976 288.029C220.868 283.404 218.856 273.892 223.481 266.785V266.785C228.107 259.677 237.618 257.665 244.725 262.291L399.189 362.811C406.296 367.436 408.308 376.948 403.683 384.055V384.055Z" fill="#F3AC3C"/>
<path id="Rectangle 6" d="M243.797 541.007C235.555 541.144 228.762 534.573 228.625 526.33L225.553 341.209C225.416 332.966 231.987 326.173 240.23 326.037V326.037C248.472 325.9 255.265 332.471 255.402 340.714L258.474 525.835C258.611 534.078 252.04 540.87 243.797 541.007V541.007Z" fill="#F3AC3C"/>
<path id="Rectangle 3" d="M244.428 1.95656C251.654 1.97844 257.494 7.85365 257.472 15.0792L256.9 203.912C256.878 211.138 251.003 216.977 243.778 216.956V216.956C236.552 216.934 230.712 211.058 230.734 203.833L231.306 15C231.328 7.77443 237.203 1.93469 244.428 1.95656V1.95656Z" fill="#F3AC3C"/>
<ellipse id="Ellipse 2" cx="220.873" cy="338.481" rx="20.5" ry="18.5" transform="rotate(-0.320033 220.873 338.481)" fill="#998235"/>
<ellipse id="Ellipse 3" cx="228.898" cy="253.435" rx="28" ry="26.5" transform="rotate(-0.320033 228.898 253.435)" fill="#998235"/>
<ellipse id="Ellipse 4" cx="296.612" cy="291.557" rx="7.5" ry="9" transform="rotate(-0.320033 296.612 291.557)" fill="#998235"/>
</g>
</svg>
